<?xml version="1.0" encoding="UTF-8"?>
<svg width="135px" height="85px" viewBox="0 0 135 85" version="1.1" xmlns="http://www.w3.org/2000/svg" xmlns:xlink="http://www.w3.org/1999/xlink">
    <!-- Generator: Sketch 47.1 (45422) - http://www.bohemiancoding.com/sketch -->
    <title>Button3ColHeader</title>
    <desc>Created with Sketch.</desc>
    <defs></defs>
    <g id="Page-1" stroke="none" stroke-width="1" fill="none" fill-rule="evenodd">
        <g id="Button" transform="translate(0.000000, -460.000000)">
            <g id="Button3ColHeader" transform="translate(0.000000, 460.000000)">
                <rect id="BG" fill="#D8D8D8" x="0" y="0" width="135" height="85" rx="8"></rect>
                <g id="Col3" transform="translate(88.000000, 14.000000)">
                    <rect id="copyLine3" fill="#FFFFFF" x="0" y="48" width="15" height="10" rx="2"></rect>
                    <rect id="copyLine2" fill="#C9C9C9" x="0" y="32" width="30" height="10" rx="2"></rect>
                    <rect id="copyLine1" fill="#C9C9C9" x="0" y="16" width="30" height="10" rx="2"></rect>
                    <rect id="headline" fill="#ACACAC" x="0" y="0" width="30" height="10" rx="2"></rect>
                </g>
                <g id="Col2" transform="translate(52.000000, 14.000000)">
                    <rect id="copyLine3" fill="#FFFFFF" x="0" y="48" width="15" height="10" rx="2"></rect>
                    <rect id="copyLine2" fill="#C9C9C9" x="0" y="32" width="30" height="10" rx="2"></rect>
                    <rect id="copyLine1" fill="#C9C9C9" x="0" y="16" width="30" height="10" rx="2"></rect>
                    <rect id="headline" fill="#ACACAC" x="0" y="0" width="30" height="10" rx="2"></rect>
                </g>
                <g id="Col1" transform="translate(16.000000, 14.000000)">
                    <rect id="copyLine3" fill="#FFFFFF" x="0" y="48" width="15" height="10" rx="2"></rect>
                    <rect id="copyLine2" fill="#C9C9C9" x="0" y="32" width="30" height="10" rx="2"></rect>
                    <rect id="copyLine1" fill="#C9C9C9" x="0" y="16" width="30" height="10" rx="2"></rect>
                    <rect id="headline" fill="#ACACAC" x="0" y="0" width="30" height="10" rx="2"></rect>
                </g>
            </g>
        </g>
    </g>
</svg>