<?xml version="1.0" encoding="UTF-8"?>
<svg width="135px" height="85px" viewBox="0 0 135 85" version="1.1" xmlns="http://www.w3.org/2000/svg" xmlns:xlink="http://www.w3.org/1999/xlink">
    <!-- Generator: Sketch 47.1 (45422) - http://www.bohemiancoding.com/sketch -->
    <title>HeadlineDateAndCopy</title>
    <desc>Created with Sketch.</desc>
    <defs></defs>
    <g id="Page-1" stroke="none" stroke-width="1" fill="none" fill-rule="evenodd">
        <g id="PlainText" transform="translate(0.000000, -230.000000)">
            <g id="HeadlineDateAndCopy" transform="translate(0.000000, 230.000000)">
                <rect id="BG" fill="#D8D8D8" x="0" y="0" width="135" height="85" rx="8"></rect>
                <rect id="copyLine3" fill="#C9C9C9" x="73" y="62" width="47" height="10" rx="2"></rect>
                <rect id="copyLine2" fill="#C9C9C9" x="73" y="46" width="47" height="10" rx="2"></rect>
                <rect id="copyLine1" fill="#C9C9C9" x="73" y="30" width="47" height="10" rx="2"></rect>
                <rect id="headline" fill="#ACACAC" x="73" y="14" width="47" height="10" rx="2"></rect>
                <path d="M63.7901352,23.5158384 C62.9841164,22.6958906 62.0278268,22.28586 60.9237205,22.28586 L56.847218,22.28586 L56.847218,19.1786058 C56.847218,17.7547783 56.3477652,16.5355693 55.3498638,15.5214323 C54.3514046,14.5072952 53.1522495,14 51.7503905,14 L49.7124181,14 C48.3106706,14 47.1110692,14.5072952 46.1130563,15.5215456 C45.1147086,16.5355693 44.6157021,17.7548917 44.6157021,19.1787192 L44.6157021,22.2859734 L32.3854135,22.2859734 L32.3854135,19.1787192 C32.3854135,17.7548917 31.8861839,16.5356827 30.8880593,15.5215456 C29.8901579,14.5072952 28.690445,14 27.2886975,14 L25.2503905,14 C23.8489777,14 22.6491532,14.5072952 21.6510287,15.5215456 C20.6531272,16.5355693 20.1537861,17.7548917 20.1537861,19.1787192 L20.1537861,22.2859734 L16.0771719,22.2859734 C14.972731,22.2859734 14.0173338,22.696004 13.2104226,23.5159518 C12.4035114,24.3357863 12,25.3070724 12,26.4290168 L12,67.8575234 C12,68.9786743 12.4035114,69.9497337 13.2104226,70.770135 C14.0172223,71.589856 14.9726195,72 16.0771719,72 L60.9229396,72 C62.0270459,72 62.9834471,71.5899694 63.7893543,70.770135 C64.596377,69.9500738 65,68.9785609 65,67.8575234 L65,26.4289034 C64.9998884,25.306619 64.5967117,24.3357863 63.7901352,23.5158384 Z M48.6932088,19.1790593 C48.6932088,18.8767227 48.7879229,18.6283464 48.9788016,18.4346106 C49.1696802,18.2406481 49.4139959,18.1434968 49.7117487,18.1434968 L51.7497211,18.1434968 C52.0475855,18.1434968 52.2911203,18.240308 52.4826683,18.4346106 C52.6736584,18.6286865 52.769042,18.8770627 52.769042,19.1790593 L52.769042,28.5001417 C52.769042,28.802365 52.6736584,29.0502878 52.4826683,29.2445904 C52.2910087,29.4383262 52.0475855,29.5357042 51.7497211,29.5357042 L49.7117487,29.5357042 C49.4139959,29.5357042 49.1696802,29.4387796 48.9788016,29.2445904 C48.7879229,29.0501744 48.6932088,28.802365 48.6932088,28.5001417 L48.6932088,19.1790593 Z M24.2312927,19.1790593 C24.2312927,18.8767227 24.3266762,18.6283464 24.517778,18.4346106 C24.7089913,18.2406481 24.9529723,18.1434968 25.2503905,18.1434968 L27.2886975,18.1434968 C27.5862272,18.1434968 27.8306545,18.240308 28.02131,18.4346106 C28.2121886,18.6286865 28.3080184,18.8770627 28.3080184,19.1790593 L28.3080184,28.5001417 C28.3080184,28.802365 28.2126349,29.0506279 28.02131,29.2445904 C27.8302083,29.4383262 27.5862272,29.5357042 27.2886975,29.5357042 L25.2503905,29.5357042 C24.9529723,29.5357042 24.7086566,29.4387796 24.517778,29.2445904 C24.3271225,29.0501744 24.2312927,28.802365 24.2312927,28.5001417 L24.2312927,19.1790593 Z M60.9229396,67.8569566 L16.0771719,67.8569566 L16.0771719,34.7144234 L60.9229396,34.7144234 L60.9229396,67.8569566 L60.9229396,67.8569566 Z" id="Shape" fill="#858585" fill-rule="nonzero"></path>
            </g>
        </g>
    </g>
</svg>