<?xml version="1.0" encoding="UTF-8"?>
<svg width="135px" height="85px" viewBox="0 0 135 85" version="1.1" xmlns="http://www.w3.org/2000/svg" xmlns:xlink="http://www.w3.org/1999/xlink">
    <!-- Generator: Sketch 47.1 (45422) - http://www.bohemiancoding.com/sketch -->
    <title>ImageHeadlineWithButton</title>
    <desc>Created with Sketch.</desc>
    <defs></defs>
    <g id="Page-1" stroke="none" stroke-width="1" fill="none" fill-rule="evenodd">
        <g id="Image" transform="translate(0.000000, -115.000000)">
            <g id="ImageHeadlineWithButton" transform="translate(0.000000, 115.000000)">
                <rect id="BG" fill="#D8D8D8" x="0" y="0" width="135" height="85" rx="8"></rect>
                <rect id="copyLine3" fill="#FFFFFF" x="73" y="62" width="24" height="10" rx="2"></rect>
                <rect id="copyLine2" fill="#C9C9C9" x="73" y="46" width="47" height="10" rx="2"></rect>
                <rect id="copyLine1" fill="#C9C9C9" x="73" y="30" width="47" height="10" rx="2"></rect>
                <rect id="headline" fill="#ACACAC" x="73" y="14" width="47" height="10" rx="2"></rect>
                <path d="M63.7019169,15.3155901 C62.837076,14.4384974 61.7978168,14 60.5827855,14 L16.4166344,14 C15.2020866,14 14.1626339,14.4383993 13.2972129,15.3155901 C12.4322754,16.192879 12,17.2470572 12,18.4789093 L12,52.5206005 C12,53.7527467 12.4322754,54.8070229 13.2972129,55.6842138 C14.1626339,56.5614046 15.2020866,57 16.4166344,57 L60.5834622,57 C61.7978168,57 62.8373661,56.5614046 63.7023036,55.6842138 C64.5671445,54.807121 65,53.7528447 65,52.5206005 L65,18.4789093 C65,17.2470572 64.5671445,16.192879 63.7019169,15.3155901 Z M61.4658996,52.5206005 C61.4658996,52.7635782 61.3789805,52.9729234 61.2041753,53.1507933 C61.0291768,53.3272905 60.822079,53.4158332 60.5827855,53.4158332 L16.4166344,53.4158332 C16.1775342,53.4158332 15.9704365,53.3272905 15.7956313,53.1507933 C15.6209228,52.9730215 15.5334236,52.7635782 15.5334236,52.5206005 L15.5334236,18.4785171 C15.5334236,18.2359315 15.6206328,18.0263902 15.7956313,17.8487164 C15.9705332,17.6719251 16.1776309,17.5831863 16.4166344,17.5831863 L60.5834622,17.5831863 C60.8223691,17.5831863 61.0294668,17.6719251 61.2041753,17.8487164 C61.3783037,18.0263902 61.4658996,18.2359315 61.4658996,18.4785171 L61.4658996,52.5206005 L61.4658996,52.5206005 Z" id="Shape" fill="#858585" fill-rule="nonzero"></path>
                <path d="M24.4997993,32 C26.0278112,32 27.3263554,31.465507 28.3959337,30.395919 C29.4652109,29.3263311 30,28.0278753 30,26.5002508 C30,24.9721247 29.4649099,23.6736689 28.3959337,22.6039806 C27.3263554,21.534794 26.0277109,21 24.4997993,21 C22.9719881,21 21.6735442,21.534794 20.603966,22.6039806 C19.5347891,23.6735686 19,24.9720243 19,26.5002508 C19,28.0278753 19.5344881,29.3266321 20.603966,30.395919 C21.6735442,31.465206 22.9719881,32 24.4997993,32 Z" id="Shape" fill="#858585" fill-rule="nonzero"></path>
                <polygon id="Shape" fill="#858585" fill-rule="nonzero" points="32.2953509 39.8145371 27.8634379 35.1853616 19 44.4442192 19 50 58 50 58 37.0371534 46.4773367 25"></polygon>
            </g>
        </g>
    </g>
</svg>