<svg xmlns="http://www.w3.org/2000/svg" viewBox="0 0 9.52 9.52"><defs><style>.cls-1{fill:#fff;}</style></defs><title>search</title><g id="Layer_2" data-name="Layer 2"><g id="Layer_1-2" data-name="Layer 1"><path class="cls-1" d="M3.84,7.57a3.72,3.72,0,0,0,1.88-.5L8,9.35a.56.56,0,0,0,.81,0l.57-.56a.49.49,0,0,0-.08-.73L7,5.78a3.77,3.77,0,0,0,.54-1.94A3.92,3.92,0,0,0,3.73,0,3.73,3.73,0,0,0,0,3.73,3.93,3.93,0,0,0,3.84,7.57ZM3.73,1.15A2.78,2.78,0,0,1,6.42,3.84,2.58,2.58,0,0,1,3.84,6.43a2.79,2.79,0,0,1-2.69-2.7A2.57,2.57,0,0,1,3.73,1.15Z"/></g></g></svg>