<?xml version="1.0" encoding="UTF-8"?>
<svg width="135px" height="85px" viewBox="0 0 135 85" version="1.1" xmlns="http://www.w3.org/2000/svg" xmlns:xlink="http://www.w3.org/1999/xlink">
    <!-- Generator: Sketch 47.1 (45422) - http://www.bohemiancoding.com/sketch -->
    <title>TextLink3ColImaegWithHeadline</title>
    <desc>Created with Sketch.</desc>
    <defs></defs>
    <g id="Page-1" stroke="none" stroke-width="1" fill="none" fill-rule="evenodd">
        <g id="TextLink" transform="translate(0.000000, -575.000000)">
            <g id="TextLink3ColImaegWithHeadline" transform="translate(0.000000, 575.000000)">
                <rect id="BG" fill="#D8D8D8" x="0" y="0" width="135" height="85" rx="8"></rect>
                <g id="Col3" transform="translate(88.000000, 12.000000)">
                    <rect id="copyLine3" stroke="#FFFFFF" stroke-width="2" x="1" y="51" width="13" height="8" rx="2"></rect>
                    <rect id="copyLine2" fill="#ACACAC" x="0" y="34" width="30" height="10" rx="2"></rect>
                    <path d="M28.7019169,1.31559013 C27.837076,0.438497357 26.7978168,0 25.5827855,0 L4.41663444,0 C3.20208656,0 2.1626339,0.438399303 1.29721294,1.31559013 C0.432275401,2.192879 0,3.24705724 0,4.47890927 L0,21.5206005 C0,22.7527467 0.432275401,23.8070229 1.29721294,24.6842138 C2.1626339,25.5614046 3.20208656,26 4.41663444,26 L25.5834622,26 C26.7978168,26 27.8373661,25.5614046 28.7023036,24.6842138 C29.5671445,23.807121 30,22.7528447 30,21.5206005 L30,4.47890927 C30,3.24705724 29.5671445,2.192879 28.7019169,1.31559013 Z M26.2041753,22.1507933 C26.0291768,22.3272905 25.822079,22.4158332 25.5827855,22.4158332 L4.41663444,22.4158332 C4.17753422,22.4158332 3.9704365,22.3272905 3.79563133,22.1507933 C3.62092284,21.9730215 3.53342357,21.7635782 3.53342357,21.5206005 L3.53342357,4.47851706 C3.53342357,4.23593154 3.62063279,4.0263902 3.79563133,3.84871641 C3.97053319,3.6719251 4.17763091,3.58318625 4.41663444,3.58318625 C9.12295663,3.58318625 12.6526983,3.58318625 15.0058594,3.58318625 C17.3564378,3.58318625 20.8823054,3.58318625 25.5834622,3.58318625 C25.8223691,3.58318625 26.0294668,3.6719251 26.2041753,3.84871641 C26.3783037,4.0263902 26.4658996,4.23593154 26.4658996,4.47851706 L26.4658996,21.5206005 C26.4658996,21.7635782 26.3789805,21.9729234 26.2041753,22.1507933 Z" id="Shape" fill="#858585" fill-rule="nonzero"></path>
                    <path d="M8.99989054,12 C9.83335158,12 10.5416484,11.7084584 11.1250547,11.1250467 C11.7082968,10.5416351 12,9.83338654 12,9.00013682 C12,8.16661346 11.7081327,7.45836488 11.1250547,6.87489852 C10.5416484,6.29170581 9.83329685,6 8.99989054,6 C8.16653897,6 7.45829685,6.29170581 6.87489054,6.87489852 C6.29170315,7.45831015 6,8.16655873 6,9.00013682 C6,9.83338654 6.29153897,10.5417993 6.87489054,11.1250467 C7.45829685,11.7082942 8.16653897,12 8.99989054,12 Z" id="Shape" fill="#858585" fill-rule="nonzero"></path>
                    <polygon id="Shape" fill="#858585" fill-rule="nonzero" points="12.4772222 15.1109778 10.3180851 12.8889736 6 17.3332252 6 20 25 20 25 13.7778336 19.3863948 8"></polygon>
                </g>
                <g id="Col2" transform="translate(52.000000, 12.000000)">
                    <rect id="copyLine3" stroke="#FFFFFF" stroke-width="2" x="1" y="51" width="13" height="8" rx="2"></rect>
                    <rect id="copyLine2" fill="#ACACAC" x="0" y="34" width="30" height="10" rx="2"></rect>
                    <path d="M28.7019169,1.31559013 C27.837076,0.438497357 26.7978168,0 25.5827855,0 L4.41663444,0 C3.20208656,0 2.1626339,0.438399303 1.29721294,1.31559013 C0.432275401,2.192879 0,3.24705724 0,4.47890927 L0,21.5206005 C0,22.7527467 0.432275401,23.8070229 1.29721294,24.6842138 C2.1626339,25.5614046 3.20208656,26 4.41663444,26 L25.5834622,26 C26.7978168,26 27.8373661,25.5614046 28.7023036,24.6842138 C29.5671445,23.807121 30,22.7528447 30,21.5206005 L30,4.47890927 C30,3.24705724 29.5671445,2.192879 28.7019169,1.31559013 Z M26.2041753,22.1507933 C26.0291768,22.3272905 25.822079,22.4158332 25.5827855,22.4158332 L4.41663444,22.4158332 C4.17753422,22.4158332 3.9704365,22.3272905 3.79563133,22.1507933 C3.62092284,21.9730215 3.53342357,21.7635782 3.53342357,21.5206005 L3.53342357,4.47851706 C3.53342357,4.23593154 3.62063279,4.0263902 3.79563133,3.84871641 C3.97053319,3.6719251 4.17763091,3.58318625 4.41663444,3.58318625 C9.12295663,3.58318625 12.6526983,3.58318625 15.0058594,3.58318625 C17.3564378,3.58318625 20.8823054,3.58318625 25.5834622,3.58318625 C25.8223691,3.58318625 26.0294668,3.6719251 26.2041753,3.84871641 C26.3783037,4.0263902 26.4658996,4.23593154 26.4658996,4.47851706 L26.4658996,21.5206005 C26.4658996,21.7635782 26.3789805,21.9729234 26.2041753,22.1507933 Z" id="Shape" fill="#858585" fill-rule="nonzero"></path>
                    <path d="M8.99989054,12 C9.83335158,12 10.5416484,11.7084584 11.1250547,11.1250467 C11.7082968,10.5416351 12,9.83338654 12,9.00013682 C12,8.16661346 11.7081327,7.45836488 11.1250547,6.87489852 C10.5416484,6.29170581 9.83329685,6 8.99989054,6 C8.16653897,6 7.45829685,6.29170581 6.87489054,6.87489852 C6.29170315,7.45831015 6,8.16655873 6,9.00013682 C6,9.83338654 6.29153897,10.5417993 6.87489054,11.1250467 C7.45829685,11.7082942 8.16653897,12 8.99989054,12 Z" id="Shape" fill="#858585" fill-rule="nonzero"></path>
                    <polygon id="Shape" fill="#858585" fill-rule="nonzero" points="12.4772222 15.1109778 10.3180851 12.8889736 6 17.3332252 6 20 25 20 25 13.7778336 19.3863948 8"></polygon>
                </g>
                <g id="Col1" transform="translate(16.000000, 12.000000)">
                    <rect id="copyLine3" stroke="#FFFFFF" stroke-width="2" x="1" y="51" width="13" height="8" rx="2"></rect>
                    <rect id="copyLine2" fill="#ACACAC" x="0" y="34" width="30" height="10" rx="2"></rect>
                    <path d="M28.7019169,1.31559013 C27.837076,0.438497357 26.7978168,0 25.5827855,0 L4.41663444,0 C3.20208656,0 2.1626339,0.438399303 1.29721294,1.31559013 C0.432275401,2.192879 0,3.24705724 0,4.47890927 L0,21.5206005 C0,22.7527467 0.432275401,23.8070229 1.29721294,24.6842138 C2.1626339,25.5614046 3.20208656,26 4.41663444,26 L25.5834622,26 C26.7978168,26 27.8373661,25.5614046 28.7023036,24.6842138 C29.5671445,23.807121 30,22.7528447 30,21.5206005 L30,4.47890927 C30,3.24705724 29.5671445,2.192879 28.7019169,1.31559013 Z M26.2041753,22.1507933 C26.0291768,22.3272905 25.822079,22.4158332 25.5827855,22.4158332 L4.41663444,22.4158332 C4.17753422,22.4158332 3.9704365,22.3272905 3.79563133,22.1507933 C3.62092284,21.9730215 3.53342357,21.7635782 3.53342357,21.5206005 L3.53342357,4.47851706 C3.53342357,4.23593154 3.62063279,4.0263902 3.79563133,3.84871641 C3.97053319,3.6719251 4.17763091,3.58318625 4.41663444,3.58318625 C9.12295663,3.58318625 12.6526983,3.58318625 15.0058594,3.58318625 C17.3564378,3.58318625 20.8823054,3.58318625 25.5834622,3.58318625 C25.8223691,3.58318625 26.0294668,3.6719251 26.2041753,3.84871641 C26.3783037,4.0263902 26.4658996,4.23593154 26.4658996,4.47851706 L26.4658996,21.5206005 C26.4658996,21.7635782 26.3789805,21.9729234 26.2041753,22.1507933 Z" id="Shape" fill="#858585" fill-rule="nonzero"></path>
                    <path d="M8.99989054,12 C9.83335158,12 10.5416484,11.7084584 11.1250547,11.1250467 C11.7082968,10.5416351 12,9.83338654 12,9.00013682 C12,8.16661346 11.7081327,7.45836488 11.1250547,6.87489852 C10.5416484,6.29170581 9.83329685,6 8.99989054,6 C8.16653897,6 7.45829685,6.29170581 6.87489054,6.87489852 C6.29170315,7.45831015 6,8.16655873 6,9.00013682 C6,9.83338654 6.29153897,10.5417993 6.87489054,11.1250467 C7.45829685,11.7082942 8.16653897,12 8.99989054,12 Z" id="Shape" fill="#858585" fill-rule="nonzero"></path>
                    <polygon id="Shape" fill="#858585" fill-rule="nonzero" points="12.4772222 15.1109778 10.3180851 12.8889736 6 17.3332252 6 20 25 20 25 13.7778336 19.3863948 8"></polygon>
                </g>
            </g>
        </g>
    </g>
</svg>