<?xml version="1.0" encoding="UTF-8"?>
<svg width="135px" height="85px" viewBox="0 0 135 85" version="1.1" xmlns="http://www.w3.org/2000/svg" xmlns:xlink="http://www.w3.org/1999/xlink">
    <!-- Generator: Sketch 47.1 (45422) - http://www.bohemiancoding.com/sketch -->
    <title>TextLinkBannerWithHeadline</title>
    <desc>Created with Sketch.</desc>
    <defs></defs>
    <g id="Page-1" stroke="none" stroke-width="1" fill="none" fill-rule="evenodd">
        <g id="TextLink" transform="translate(0.000000, -345.000000)">
            <g id="TextLinkBannerWithHeadline" transform="translate(0.000000, 345.000000)">
                <rect id="BG" fill="#D8D8D8" x="0" y="0" width="135" height="85" rx="8"></rect>
                <rect id="copyLine1" stroke="#FFFFFF" stroke-width="2" x="15" y="63" width="52" height="8" rx="2"></rect>
                <rect id="headline" fill="#ACACAC" x="14" y="46" width="106" height="10" rx="2"></rect>
                <path d="M118.701917,15.3155901 C117.837076,14.4384974 116.797817,14 115.582785,14 L18.4166344,14 C17.2020866,14 16.1626339,14.4383993 15.2972129,15.3155901 C14.4322754,16.192879 14,17.2470572 14,18.4789093 L14,35.5206005 C14,36.7527467 14.4322754,37.8070229 15.2972129,38.6842138 C16.1626339,39.5614046 17.2020866,40 18.4166344,40 L115.583462,40 C116.797817,40 117.837366,39.5614046 118.702304,38.6842138 C119.567144,37.807121 120,36.7528447 120,35.5206005 L120,18.4789093 C120,17.2470572 119.567144,16.192879 118.701917,15.3155901 Z M116.204175,36.1507933 C116.029177,36.3272905 115.822079,36.4158332 115.582785,36.4158332 L18.4166344,36.4158332 C18.1775342,36.4158332 17.9704365,36.3272905 17.7956313,36.1507933 C17.6209228,35.9730215 17.5334236,35.7635782 17.5334236,35.5206005 L17.5334236,18.4785171 C17.5334236,18.2359315 17.6206328,18.0263902 17.7956313,17.8487164 C17.9705332,17.6719251 18.1776309,17.5831863 18.4166344,17.5831863 L115.583462,17.5831863 C115.822369,17.5831863 116.029467,17.6719251 116.204175,17.8487164 C116.378304,18.0263902 116.4659,18.2359315 116.4659,18.4785171 L116.4659,35.5206005 C116.4659,35.7635782 116.37898,35.9729234 116.204175,36.1507933 Z" id="Shape" fill="#858585" fill-rule="nonzero"></path>
                <path d="M59.9998905,26 C60.8333516,26 61.5416484,25.7084584 62.1250547,25.1250467 C62.7082968,24.5416351 63,23.8333865 63,23.0001368 C63,22.1666135 62.7081327,21.4583649 62.1250547,20.8748985 C61.5416484,20.2917058 60.8332968,20 59.9998905,20 C59.166539,20 58.4582968,20.2917058 57.8748905,20.8748985 C57.2917032,21.4583101 57,22.1665587 57,23.0001368 C57,23.8333865 57.291539,24.5417993 57.8748905,25.1250467 C58.4582968,25.7082942 59.166539,26 59.9998905,26 Z" id="Shape" fill="#858585" fill-rule="nonzero"></path>
                <polygon id="Shape" fill="#858585" fill-rule="nonzero" points="63.4772222 29.1109778 61.3180851 26.8889736 57 31.3332252 57 34 76 34 76 27.7778336 70.3863948 22"></polygon>
            </g>
        </g>
    </g>
</svg>