<?xml version="1.0" encoding="UTF-8"?>
<svg width="135px" height="85px" viewBox="0 0 135 85" version="1.1" xmlns="http://www.w3.org/2000/svg" xmlns:xlink="http://www.w3.org/1999/xlink">
    <!-- Generator: Sketch 47.1 (45422) - http://www.bohemiancoding.com/sketch -->
    <title>TextLink2ColImageWithHeadline</title>
    <desc>Created with Sketch.</desc>
    <defs></defs>
    <g id="Page-1" stroke="none" stroke-width="1" fill="none" fill-rule="evenodd">
        <g id="TextLink" transform="translate(0.000000, -460.000000)">
            <g id="TextLink2ColImageWithHeadline" transform="translate(0.000000, 460.000000)">
                <rect id="BG" fill="#D8D8D8" x="0" y="0" width="135" height="85" rx="8"></rect>
                <g id="Col2" transform="translate(73.000000, 12.000000)">
                    <rect id="copyLine3" stroke="#FFFFFF" stroke-width="2" x="1" y="51" width="22" height="8" rx="2"></rect>
                    <rect id="copyLine2" fill="#ACACAC" x="0" y="34" width="47" height="10" rx="2"></rect>
                    <path d="M44.7019169,1.31559013 C43.837076,0.438497357 42.7978168,0 41.5827855,0 L4.41663444,0 C3.20208656,0 2.1626339,0.438399303 1.29721294,1.31559013 C0.432275401,2.192879 0,3.24705724 0,4.47890927 L0,21.5206005 C0,22.7527467 0.432275401,23.8070229 1.29721294,24.6842138 C2.1626339,25.5614046 3.20208656,26 4.41663444,26 L41.5834622,26 C42.7978168,26 43.8373661,25.5614046 44.7023036,24.6842138 C45.5671445,23.807121 46,22.7528447 46,21.5206005 L46,4.47890927 C46,3.24705724 45.5671445,2.192879 44.7019169,1.31559013 Z M42.2041753,22.1507933 C42.0291768,22.3272905 41.822079,22.4158332 41.5827855,22.4158332 L4.41663444,22.4158332 C4.17753422,22.4158332 3.9704365,22.3272905 3.79563133,22.1507933 C3.62092284,21.9730215 3.53342357,21.7635782 3.53342357,21.5206005 L3.53342357,4.47851706 C3.53342357,4.23593154 3.62063279,4.0263902 3.79563133,3.84871641 C3.97053319,3.6719251 4.17763091,3.58318625 4.41663444,3.58318625 L41.5834622,3.58318625 C41.8223691,3.58318625 42.0294668,3.6719251 42.2041753,3.84871641 C42.3783037,4.0263902 42.4658996,4.23593154 42.4658996,4.47851706 L42.4658996,21.5206005 C42.4658996,21.7635782 42.3789805,21.9729234 42.2041753,22.1507933 Z" id="Shape" fill="#858585" fill-rule="nonzero"></path>
                    <path d="M16.9998905,12 C17.8333516,12 18.5416484,11.7084584 19.1250547,11.1250467 C19.7082968,10.5416351 20,9.83338654 20,9.00013682 C20,8.16661346 19.7081327,7.45836488 19.1250547,6.87489852 C18.5416484,6.29170581 17.8332968,6 16.9998905,6 C16.166539,6 15.4582968,6.29170581 14.8748905,6.87489852 C14.2917032,7.45831015 14,8.16655873 14,9.00013682 C14,9.83338654 14.291539,10.5417993 14.8748905,11.1250467 C15.4582968,11.7082942 16.166539,12 16.9998905,12 Z" id="Shape" fill="#858585" fill-rule="nonzero"></path>
                    <polygon id="Shape" fill="#858585" fill-rule="nonzero" points="20.4772222 15.1109778 18.3180851 12.8889736 14 17.3332252 14 20 33 20 33 13.7778336 27.3863948 8"></polygon>
                </g>
                <g id="Col1" transform="translate(16.000000, 12.000000)">
                    <rect id="copyLine3" stroke="#FFFFFF" stroke-width="2" x="1" y="51" width="22" height="8" rx="2"></rect>
                    <rect id="copyLine2" fill="#ACACAC" x="0" y="34" width="47" height="10" rx="2"></rect>
                    <path d="M44.7019169,1.31559013 C43.837076,0.438497357 42.7978168,0 41.5827855,0 L4.41663444,0 C3.20208656,0 2.1626339,0.438399303 1.29721294,1.31559013 C0.432275401,2.192879 0,3.24705724 0,4.47890927 L0,21.5206005 C0,22.7527467 0.432275401,23.8070229 1.29721294,24.6842138 C2.1626339,25.5614046 3.20208656,26 4.41663444,26 L41.5834622,26 C42.7978168,26 43.8373661,25.5614046 44.7023036,24.6842138 C45.5671445,23.807121 46,22.7528447 46,21.5206005 L46,4.47890927 C46,3.24705724 45.5671445,2.192879 44.7019169,1.31559013 Z M42.2041753,22.1507933 C42.0291768,22.3272905 41.822079,22.4158332 41.5827855,22.4158332 L4.41663444,22.4158332 C4.17753422,22.4158332 3.9704365,22.3272905 3.79563133,22.1507933 C3.62092284,21.9730215 3.53342357,21.7635782 3.53342357,21.5206005 L3.53342357,4.47851706 C3.53342357,4.23593154 3.62063279,4.0263902 3.79563133,3.84871641 C3.97053319,3.6719251 4.17763091,3.58318625 4.41663444,3.58318625 L41.5834622,3.58318625 C41.8223691,3.58318625 42.0294668,3.6719251 42.2041753,3.84871641 C42.3783037,4.0263902 42.4658996,4.23593154 42.4658996,4.47851706 L42.4658996,21.5206005 C42.4658996,21.7635782 42.3789805,21.9729234 42.2041753,22.1507933 Z" id="Shape" fill="#858585" fill-rule="nonzero"></path>
                    <path d="M16.9998905,12 C17.8333516,12 18.5416484,11.7084584 19.1250547,11.1250467 C19.7082968,10.5416351 20,9.83338654 20,9.00013682 C20,8.16661346 19.7081327,7.45836488 19.1250547,6.87489852 C18.5416484,6.29170581 17.8332968,6 16.9998905,6 C16.166539,6 15.4582968,6.29170581 14.8748905,6.87489852 C14.2917032,7.45831015 14,8.16655873 14,9.00013682 C14,9.83338654 14.291539,10.5417993 14.8748905,11.1250467 C15.4582968,11.7082942 16.166539,12 16.9998905,12 Z" id="Shape" fill="#858585" fill-rule="nonzero"></path>
                    <polygon id="Shape" fill="#858585" fill-rule="nonzero" points="20.4772222 15.1109778 18.3180851 12.8889736 14 17.3332252 14 20 33 20 33 13.7778336 27.3863948 8"></polygon>
                </g>
            </g>
        </g>
    </g>
</svg>